# Object Export From Tinkercad Server 2015

mtllib obj.mtl

o obj_0
v 5 		33.5 		10.5
v 5 		33.5 		30.5
v 5 		13.5 		10.5
v 5 		13.5 		30.5
v 25 		33.5 		30.5
v 25 		33.5 		10.5
v 25 		13.5 		30.5
v 25 		13.5 		10.5
# 8 vertices

g group_0_16777215

usemtl color_16777215
s 0

f 1 	3 	2
f 3 	4 	2
f 5 	7 	6
f 7 	8 	6
f 5 	6 	2
f 6 	1 	2
f 8 	7 	3
f 7 	4 	3
f 6 	8 	1
f 8 	3 	1
f 2 	4 	5
f 4 	7 	5
# 12 faces

 #end of obj_0

o obj_1
v 14.6737 		32.5 		17.5214
v 15 		32.5 		17.5
v 15 		32.5 		20
v 14.353 		32.5 		17.5852
v 14.0433 		32.5 		17.6903
v 13.75 		32.5 		17.8349
v 13.4781 		32.5 		18.0166
v 13.2322 		32.5 		18.2322
v 13.0166 		32.5 		18.4781
v 12.8349 		32.5 		18.75
v 12.6903 		32.5 		19.0433
v 12.5852 		32.5 		19.353
v 12.5214 		32.5 		19.6737
v 12.5 		32.5 		20
v 12.5214 		32.5 		20.3263
v 12.5852 		32.5 		20.647
v 12.6903 		32.5 		20.9567
v 12.8349 		32.5 		21.25
v 13.0166 		32.5 		21.5219
v 13.2322 		32.5 		21.7678
v 13.4781 		32.5 		21.9834
v 13.75 		32.5 		22.1651
v 14.0433 		32.5 		22.3097
v 14.353 		32.5 		22.4148
v 14.6737 		32.5 		22.4786
v 15 		32.5 		22.5
v 15.3263 		32.5 		22.4786
v 15.647 		32.5 		22.4148
v 15.9567 		32.5 		22.3097
v 16.25 		32.5 		22.1651
v 16.5219 		32.5 		21.9834
v 16.7678 		32.5 		21.7678
v 16.9834 		32.5 		21.5219
v 17.1651 		32.5 		21.25
v 17.3097 		32.5 		20.9567
v 17.4148 		32.5 		20.647
v 17.4786 		32.5 		20.3263
v 17.5 		32.5 		20
v 17.4786 		32.5 		19.6737
v 17.4148 		32.5 		19.353
v 17.3097 		32.5 		19.0433
v 17.1651 		32.5 		18.75
v 16.9834 		32.5 		18.4781
v 16.7678 		32.5 		18.2322
v 16.5219 		32.5 		18.0166
v 16.25 		32.5 		17.8349
v 15.9567 		32.5 		17.6903
v 15.647 		32.5 		17.5852
v 15.3263 		32.5 		17.5214
v 15 		34.5 		17.5
v 14.6737 		34.5 		17.5214
v 15 		34.5 		20
v 14.353 		34.5 		17.5852
v 14.0433 		34.5 		17.6903
v 13.75 		34.5 		17.8349
v 13.4781 		34.5 		18.0166
v 13.2322 		34.5 		18.2322
v 13.0166 		34.5 		18.4781
v 12.8349 		34.5 		18.75
v 12.6903 		34.5 		19.0433
v 12.5852 		34.5 		19.353
v 12.5214 		34.5 		19.6737
v 12.5 		34.5 		20
v 12.5214 		34.5 		20.3263
v 12.5852 		34.5 		20.647
v 12.6903 		34.5 		20.9567
v 12.8349 		34.5 		21.25
v 13.0166 		34.5 		21.5219
v 13.2322 		34.5 		21.7678
v 13.4781 		34.5 		21.9834
v 13.75 		34.5 		22.1651
v 14.0433 		34.5 		22.3097
v 14.353 		34.5 		22.4148
v 14.6737 		34.5 		22.4786
v 15 		34.5 		22.5
v 15.3263 		34.5 		22.4786
v 15.647 		34.5 		22.4148
v 15.9567 		34.5 		22.3097
v 16.25 		34.5 		22.1651
v 16.5219 		34.5 		21.9834
v 16.7678 		34.5 		21.7678
v 16.9834 		34.5 		21.5219
v 17.1651 		34.5 		21.25
v 17.3097 		34.5 		20.9567
v 17.4148 		34.5 		20.647
v 17.4786 		34.5 		20.3263
v 17.5 		34.5 		20
v 17.4786 		34.5 		19.6737
v 17.4148 		34.5 		19.353
v 17.3097 		34.5 		19.0433
v 17.1651 		34.5 		18.75
v 16.9834 		34.5 		18.4781
v 16.7678 		34.5 		18.2322
v 16.5219 		34.5 		18.0166
v 16.25 		34.5 		17.8349
v 15.9567 		34.5 		17.6903
v 15.647 		34.5 		17.5852
v 15.3263 		34.5 		17.5214
# 98 vertices

g group_1_16777215

usemtl color_16777215
s 0

f 9 	10 	11
f 12 	9 	11
f 13 	12 	11
f 14 	13 	11
f 15 	14 	11
f 16 	15 	11
f 17 	16 	11
f 18 	17 	11
f 19 	18 	11
f 20 	19 	11
f 21 	20 	11
f 22 	21 	11
f 23 	22 	11
f 24 	23 	11
f 25 	24 	11
f 26 	25 	11
f 27 	26 	11
f 28 	27 	11
f 29 	28 	11
f 30 	29 	11
f 31 	30 	11
f 32 	31 	11
f 33 	32 	11
f 34 	33 	11
f 35 	34 	11
f 36 	35 	11
f 37 	36 	11
f 38 	37 	11
f 39 	38 	11
f 40 	39 	11
f 41 	40 	11
f 42 	41 	11
f 43 	42 	11
f 44 	43 	11
f 45 	44 	11
f 46 	45 	11
f 47 	46 	11
f 48 	47 	11
f 49 	48 	11
f 50 	49 	11
f 51 	50 	11
f 52 	51 	11
f 53 	52 	11
f 54 	53 	11
f 55 	54 	11
f 56 	55 	11
f 57 	56 	11
f 10 	57 	11
f 58 	59 	60
f 59 	61 	60
f 61 	62 	60
f 62 	63 	60
f 63 	64 	60
f 64 	65 	60
f 65 	66 	60
f 66 	67 	60
f 67 	68 	60
f 68 	69 	60
f 69 	70 	60
f 70 	71 	60
f 71 	72 	60
f 72 	73 	60
f 73 	74 	60
f 74 	75 	60
f 75 	76 	60
f 76 	77 	60
f 77 	78 	60
f 78 	79 	60
f 79 	80 	60
f 80 	81 	60
f 81 	82 	60
f 82 	83 	60
f 83 	84 	60
f 84 	85 	60
f 85 	86 	60
f 86 	87 	60
f 87 	88 	60
f 88 	89 	60
f 89 	90 	60
f 90 	91 	60
f 91 	92 	60
f 92 	93 	60
f 93 	94 	60
f 94 	95 	60
f 95 	96 	60
f 96 	97 	60
f 97 	98 	60
f 98 	99 	60
f 99 	100 	60
f 100 	101 	60
f 101 	102 	60
f 102 	103 	60
f 103 	104 	60
f 104 	105 	60
f 105 	106 	60
f 106 	58 	60
f 10 	9 	9
f 9 	12 	12
f 12 	13 	13
f 13 	14 	14
f 14 	15 	15
f 15 	16 	16
f 16 	17 	17
f 17 	18 	18
f 18 	19 	19
f 19 	20 	20
f 20 	21 	21
f 21 	22 	22
f 22 	23 	23
f 23 	24 	24
f 24 	25 	25
f 25 	26 	26
f 26 	27 	27
f 27 	28 	28
f 28 	29 	29
f 29 	30 	30
f 30 	31 	31
f 31 	32 	32
f 32 	33 	33
f 33 	34 	34
f 34 	35 	35
f 35 	36 	36
f 36 	37 	37
f 37 	38 	38
f 38 	39 	39
f 39 	40 	40
f 40 	41 	41
f 41 	42 	42
f 42 	43 	43
f 43 	44 	44
f 44 	45 	45
f 45 	46 	46
f 46 	47 	47
f 47 	48 	48
f 48 	49 	49
f 49 	50 	50
f 50 	51 	51
f 51 	52 	52
f 52 	53 	53
f 53 	54 	54
f 54 	55 	55
f 55 	56 	56
f 56 	57 	57
f 57 	10 	10
f 10 	9 	59
f 10 	59 	58
f 9 	12 	61
f 9 	61 	59
f 12 	13 	62
f 12 	62 	61
f 13 	14 	63
f 13 	63 	62
f 14 	15 	64
f 14 	64 	63
f 15 	16 	65
f 15 	65 	64
f 16 	17 	66
f 16 	66 	65
f 17 	18 	67
f 17 	67 	66
f 18 	19 	68
f 18 	68 	67
f 19 	20 	69
f 19 	69 	68
f 20 	21 	70
f 20 	70 	69
f 21 	22 	71
f 21 	71 	70
f 22 	23 	72
f 22 	72 	71
f 23 	24 	73
f 23 	73 	72
f 24 	25 	74
f 24 	74 	73
f 25 	26 	75
f 25 	75 	74
f 26 	27 	76
f 26 	76 	75
f 27 	28 	77
f 27 	77 	76
f 28 	29 	78
f 28 	78 	77
f 29 	30 	79
f 29 	79 	78
f 30 	31 	80
f 30 	80 	79
f 31 	32 	81
f 31 	81 	80
f 32 	33 	82
f 32 	82 	81
f 33 	34 	83
f 33 	83 	82
f 34 	35 	84
f 34 	84 	83
f 35 	36 	85
f 35 	85 	84
f 36 	37 	86
f 36 	86 	85
f 37 	38 	87
f 37 	87 	86
f 38 	39 	88
f 38 	88 	87
f 39 	40 	89
f 39 	89 	88
f 40 	41 	90
f 40 	90 	89
f 41 	42 	91
f 41 	91 	90
f 42 	43 	92
f 42 	92 	91
f 43 	44 	93
f 43 	93 	92
f 44 	45 	94
f 44 	94 	93
f 45 	46 	95
f 45 	95 	94
f 46 	47 	96
f 46 	96 	95
f 47 	48 	97
f 47 	97 	96
f 48 	49 	98
f 48 	98 	97
f 49 	50 	99
f 49 	99 	98
f 50 	51 	100
f 50 	100 	99
f 51 	52 	101
f 51 	101 	100
f 52 	53 	102
f 52 	102 	101
f 53 	54 	103
f 53 	103 	102
f 54 	55 	104
f 54 	104 	103
f 55 	56 	105
f 55 	105 	104
f 56 	57 	106
f 56 	106 	105
f 57 	10 	58
f 57 	58 	106
f 58 	59 	59
f 59 	61 	61
f 61 	62 	62
f 62 	63 	63
f 63 	64 	64
f 64 	65 	65
f 65 	66 	66
f 66 	67 	67
f 67 	68 	68
f 68 	69 	69
f 69 	70 	70
f 70 	71 	71
f 71 	72 	72
f 72 	73 	73
f 73 	74 	74
f 74 	75 	75
f 75 	76 	76
f 76 	77 	77
f 77 	78 	78
f 78 	79 	79
f 79 	80 	80
f 80 	81 	81
f 81 	82 	82
f 82 	83 	83
f 83 	84 	84
f 84 	85 	85
f 85 	86 	86
f 86 	87 	87
f 87 	88 	88
f 88 	89 	89
f 89 	90 	90
f 90 	91 	91
f 91 	92 	92
f 92 	93 	93
f 93 	94 	94
f 94 	95 	95
f 95 	96 	96
f 96 	97 	97
f 97 	98 	98
f 98 	99 	99
f 99 	100 	100
f 100 	101 	101
f 101 	102 	102
f 102 	103 	103
f 103 	104 	104
f 104 	105 	105
f 105 	106 	106
f 106 	58 	58
# 288 faces

 #end of obj_1

o obj_2
v -10.8263 		-46.0214 		0
v -10.5 		-46 		0
v -10.5 		-48.5 		0
v -11.147 		-46.0852 		0
v -11.4567 		-46.1903 		0
v -11.75 		-46.3349 		0
v -12.0219 		-46.5166 		0
v -12.2678 		-46.7322 		0
v -12.4834 		-46.9781 		0
v -12.6651 		-47.25 		0
v -12.8097 		-47.5433 		0
v -12.9148 		-47.853 		0
v -12.9786 		-48.1737 		0
v -13 		-48.5 		0
v -12.9786 		-48.8263 		0
v -12.9148 		-49.147 		0
v -12.8097 		-49.4567 		0
v -12.6651 		-49.75 		0
v -12.4834 		-50.0219 		0
v -12.2678 		-50.2678 		0
v -12.0219 		-50.4834 		0
v -11.75 		-50.6651 		0
v -11.4567 		-50.8097 		0
v -11.147 		-50.9148 		0
v -10.8263 		-50.9786 		0
v -10.5 		-51 		0
v -10.1737 		-50.9786 		0
v -9.853 		-50.9148 		0
v -9.5433 		-50.8097 		0
v -9.25 		-50.6651 		0
v -8.9781 		-50.4834 		0
v -8.7322 		-50.2678 		0
v -8.5166 		-50.0219 		0
v -8.3349 		-49.75 		0
v -8.1903 		-49.4567 		0
v -8.0852 		-49.147 		0
v -8.0214 		-48.8263 		0
v -8 		-48.5 		0
v -8.0214 		-48.1737 		0
v -8.0852 		-47.853 		0
v -8.1903 		-47.5433 		0
v -8.3349 		-47.25 		0
v -8.5166 		-46.9781 		0
v -8.7322 		-46.7322 		0
v -8.9781 		-46.5166 		0
v -9.25 		-46.3349 		0
v -9.5433 		-46.1903 		0
v -9.853 		-46.0852 		0
v -10.1737 		-46.0214 		0
v -10.5 		-46 		2
v -10.8263 		-46.0214 		2
v -10.5 		-48.5 		2
v -11.147 		-46.0852 		2
v -11.4567 		-46.1903 		2
v -11.75 		-46.3349 		2
v -12.0219 		-46.5166 		2
v -12.2678 		-46.7322 		2
v -12.4834 		-46.9781 		2
v -12.6651 		-47.25 		2
v -12.8097 		-47.5433 		2
v -12.9148 		-47.853 		2
v -12.9786 		-48.1737 		2
v -13 		-48.5 		2
v -12.9786 		-48.8263 		2
v -12.9148 		-49.147 		2
v -12.8097 		-49.4567 		2
v -12.6651 		-49.75 		2
v -12.4834 		-50.0219 		2
v -12.2678 		-50.2678 		2
v -12.0219 		-50.4834 		2
v -11.75 		-50.6651 		2
v -11.4567 		-50.8097 		2
v -11.147 		-50.9148 		2
v -10.8263 		-50.9786 		2
v -10.5 		-51 		2
v -10.1737 		-50.9786 		2
v -9.853 		-50.9148 		2
v -9.5433 		-50.8097 		2
v -9.25 		-50.6651 		2
v -8.9781 		-50.4834 		2
v -8.7322 		-50.2678 		2
v -8.5166 		-50.0219 		2
v -8.3349 		-49.75 		2
v -8.1903 		-49.4567 		2
v -8.0852 		-49.147 		2
v -8.0214 		-48.8263 		2
v -8 		-48.5 		2
v -8.0214 		-48.1737 		2
v -8.0852 		-47.853 		2
v -8.1903 		-47.5433 		2
v -8.3349 		-47.25 		2
v -8.5166 		-46.9781 		2
v -8.7322 		-46.7322 		2
v -8.9781 		-46.5166 		2
v -9.25 		-46.3349 		2
v -9.5433 		-46.1903 		2
v -9.853 		-46.0852 		2
v -10.1737 		-46.0214 		2
# 98 vertices

g group_2_16777215

usemtl color_16777215
s 0

f 107 	108 	109
f 110 	107 	109
f 111 	110 	109
f 112 	111 	109
f 113 	112 	109
f 114 	113 	109
f 115 	114 	109
f 116 	115 	109
f 117 	116 	109
f 118 	117 	109
f 119 	118 	109
f 120 	119 	109
f 121 	120 	109
f 122 	121 	109
f 123 	122 	109
f 124 	123 	109
f 125 	124 	109
f 126 	125 	109
f 127 	126 	109
f 128 	127 	109
f 129 	128 	109
f 130 	129 	109
f 131 	130 	109
f 132 	131 	109
f 133 	132 	109
f 134 	133 	109
f 135 	134 	109
f 136 	135 	109
f 137 	136 	109
f 138 	137 	109
f 139 	138 	109
f 140 	139 	109
f 141 	140 	109
f 142 	141 	109
f 143 	142 	109
f 144 	143 	109
f 145 	144 	109
f 146 	145 	109
f 147 	146 	109
f 148 	147 	109
f 149 	148 	109
f 150 	149 	109
f 151 	150 	109
f 152 	151 	109
f 153 	152 	109
f 154 	153 	109
f 155 	154 	109
f 108 	155 	109
f 156 	157 	158
f 157 	159 	158
f 159 	160 	158
f 160 	161 	158
f 161 	162 	158
f 162 	163 	158
f 163 	164 	158
f 164 	165 	158
f 165 	166 	158
f 166 	167 	158
f 167 	168 	158
f 168 	169 	158
f 169 	170 	158
f 170 	171 	158
f 171 	172 	158
f 172 	173 	158
f 173 	174 	158
f 174 	175 	158
f 175 	176 	158
f 176 	177 	158
f 177 	178 	158
f 178 	179 	158
f 179 	180 	158
f 180 	181 	158
f 181 	182 	158
f 182 	183 	158
f 183 	184 	158
f 184 	185 	158
f 185 	186 	158
f 186 	187 	158
f 187 	188 	158
f 188 	189 	158
f 189 	190 	158
f 190 	191 	158
f 191 	192 	158
f 192 	193 	158
f 193 	194 	158
f 194 	195 	158
f 195 	196 	158
f 196 	197 	158
f 197 	198 	158
f 198 	199 	158
f 199 	200 	158
f 200 	201 	158
f 201 	202 	158
f 202 	203 	158
f 203 	204 	158
f 204 	156 	158
f 108 	107 	107
f 107 	110 	110
f 110 	111 	111
f 111 	112 	112
f 112 	113 	113
f 113 	114 	114
f 114 	115 	115
f 115 	116 	116
f 116 	117 	117
f 117 	118 	118
f 118 	119 	119
f 119 	120 	120
f 120 	121 	121
f 121 	122 	122
f 122 	123 	123
f 123 	124 	124
f 124 	125 	125
f 125 	126 	126
f 126 	127 	127
f 127 	128 	128
f 128 	129 	129
f 129 	130 	130
f 130 	131 	131
f 131 	132 	132
f 132 	133 	133
f 133 	134 	134
f 134 	135 	135
f 135 	136 	136
f 136 	137 	137
f 137 	138 	138
f 138 	139 	139
f 139 	140 	140
f 140 	141 	141
f 141 	142 	142
f 142 	143 	143
f 143 	144 	144
f 144 	145 	145
f 145 	146 	146
f 146 	147 	147
f 147 	148 	148
f 148 	149 	149
f 149 	150 	150
f 150 	151 	151
f 151 	152 	152
f 152 	153 	153
f 153 	154 	154
f 154 	155 	155
f 155 	108 	108
f 108 	107 	157
f 108 	157 	156
f 107 	110 	159
f 107 	159 	157
f 110 	111 	160
f 110 	160 	159
f 111 	112 	161
f 111 	161 	160
f 112 	113 	162
f 112 	162 	161
f 113 	114 	163
f 113 	163 	162
f 114 	115 	164
f 114 	164 	163
f 115 	116 	165
f 115 	165 	164
f 116 	117 	166
f 116 	166 	165
f 117 	118 	167
f 117 	167 	166
f 118 	119 	168
f 118 	168 	167
f 119 	120 	169
f 119 	169 	168
f 120 	121 	170
f 120 	170 	169
f 121 	122 	171
f 121 	171 	170
f 122 	123 	172
f 122 	172 	171
f 123 	124 	173
f 123 	173 	172
f 124 	125 	174
f 124 	174 	173
f 125 	126 	175
f 125 	175 	174
f 126 	127 	176
f 126 	176 	175
f 127 	128 	177
f 127 	177 	176
f 128 	129 	178
f 128 	178 	177
f 129 	130 	179
f 129 	179 	178
f 130 	131 	180
f 130 	180 	179
f 131 	132 	181
f 131 	181 	180
f 132 	133 	182
f 132 	182 	181
f 133 	134 	183
f 133 	183 	182
f 134 	135 	184
f 134 	184 	183
f 135 	136 	185
f 135 	185 	184
f 136 	137 	186
f 136 	186 	185
f 137 	138 	187
f 137 	187 	186
f 138 	139 	188
f 138 	188 	187
f 139 	140 	189
f 139 	189 	188
f 140 	141 	190
f 140 	190 	189
f 141 	142 	191
f 141 	191 	190
f 142 	143 	192
f 142 	192 	191
f 143 	144 	193
f 143 	193 	192
f 144 	145 	194
f 144 	194 	193
f 145 	146 	195
f 145 	195 	194
f 146 	147 	196
f 146 	196 	195
f 147 	148 	197
f 147 	197 	196
f 148 	149 	198
f 148 	198 	197
f 149 	150 	199
f 149 	199 	198
f 150 	151 	200
f 150 	200 	199
f 151 	152 	201
f 151 	201 	200
f 152 	153 	202
f 152 	202 	201
f 153 	154 	203
f 153 	203 	202
f 154 	155 	204
f 154 	204 	203
f 155 	108 	156
f 155 	156 	204
f 156 	157 	157
f 157 	159 	159
f 159 	160 	160
f 160 	161 	161
f 161 	162 	162
f 162 	163 	163
f 163 	164 	164
f 164 	165 	165
f 165 	166 	166
f 166 	167 	167
f 167 	168 	168
f 168 	169 	169
f 169 	170 	170
f 170 	171 	171
f 171 	172 	172
f 172 	173 	173
f 173 	174 	174
f 174 	175 	175
f 175 	176 	176
f 176 	177 	177
f 177 	178 	178
f 178 	179 	179
f 179 	180 	180
f 180 	181 	181
f 181 	182 	182
f 182 	183 	183
f 183 	184 	184
f 184 	185 	185
f 185 	186 	186
f 186 	187 	187
f 187 	188 	188
f 188 	189 	189
f 189 	190 	190
f 190 	191 	191
f 191 	192 	192
f 192 	193 	193
f 193 	194 	194
f 194 	195 	195
f 195 	196 	196
f 196 	197 	197
f 197 	198 	198
f 198 	199 	199
f 199 	200 	200
f 200 	201 	201
f 201 	202 	202
f 202 	203 	203
f 203 	204 	204
f 204 	156 	156
# 288 faces

 #end of obj_2

o obj_3
v 7.543 		13.5 		28.31
v 7.25 		13.5 		28.165
v 7.25 		11.5 		28.165
v 7.543 		11.5 		28.31
v 6.978 		13.5 		27.983
v 6.978 		11.5 		27.983
v 9.457 		13.5 		23.69
v 9.147 		13.5 		23.585
v 8.826 		13.5 		23.521
v 8.5 		13.5 		23.5
v 8.174 		13.5 		23.521
v 6.732 		13.5 		27.768
v 7.853 		13.5 		23.585
v 6.732 		11.5 		27.768
v 7.543 		13.5 		23.69
v 7.25 		13.5 		23.835
v 6.978 		13.5 		24.017
v 6.732 		13.5 		24.232
v 6.517 		13.5 		24.478
v 6.335 		13.5 		24.75
v 6.19 		13.5 		25.043
v 6.978 		13.5 		15.983
v 6.732 		13.5 		15.768
v 6.732 		11.5 		15.768
v 6.978 		11.5 		15.983
v 6.732 		13.5 		18.232
v 6.978 		13.5 		18.017
v 6.978 		11.5 		18.017
v 6.732 		11.5 		18.232
v 6.517 		13.5 		27.522
v 6.517 		13.5 		15.522
v 6.517 		11.5 		15.522
v 6.517 		11.5 		27.522
v 6.085 		13.5 		25.353
v 6.021 		13.5 		25.674
v 6 		13.5 		26
v 6.335 		13.5 		27.25
v 6.021 		13.5 		26.326
v 8.5 		11.5 		22.5
v 8.5 		13.5 		22.5
v 8.174 		13.5 		22.479
v 8.174 		11.5 		22.479
v 6.085 		13.5 		26.647
v 6.19 		13.5 		26.957
v 7.25 		13.5 		17.835
v 6.335 		11.5 		27.25
v 6.335 		13.5 		15.25
v 7.543 		13.5 		11.69
v 6.335 		11.5 		15.25
v 7.853 		13.5 		11.585
v 7.853 		11.5 		11.585
v 7.543 		11.5 		11.69
v 7.853 		13.5 		22.415
v 9.457 		11.5 		23.69
v 7.853 		11.5 		22.415
v 6.19 		13.5 		14.957
v 7.25 		11.5 		17.835
v 8.174 		13.5 		11.521
v 8.174 		11.5 		11.521
v 6.19 		11.5 		26.957
v 9.457 		13.5 		28.31
v 8.5 		13.5 		11.5
v 6.19 		11.5 		14.957
v 8.5 		11.5 		11.5
v 9.457 		11.5 		28.31
v 10.81 		13.5 		26.957
v 10.915 		13.5 		26.647
v 6.085 		11.5 		26.647
v 10.979 		13.5 		26.326
v 11 		13.5 		26
v 10.979 		13.5 		25.674
v 9.147 		13.5 		28.415
v 10.915 		13.5 		25.353
v 9.147 		11.5 		28.415
v 10.81 		13.5 		25.043
v 9.75 		13.5 		11.835
v 10.665 		13.5 		24.75
v 7.543 		13.5 		17.69
v 10.483 		13.5 		24.478
v 7.543 		11.5 		17.69
v 10.268 		13.5 		24.232
v 10.022 		13.5 		24.017
v 9.75 		13.5 		23.835
v 7.853 		13.5 		17.585
v 7.853 		11.5 		17.585
v 9.75 		11.5 		11.835
v 10.81 		13.5 		14.957
v 8.174 		13.5 		17.521
v 10.81 		11.5 		14.957
v 8.174 		11.5 		17.521
v 7.543 		13.5 		22.31
v 7.543 		11.5 		22.31
v 10.022 		13.5 		12.017
v 10.022 		11.5 		12.017
v 10.665 		13.5 		15.25
v 10.665 		11.5 		15.25
v 8.5 		13.5 		17.5
v 8.5 		11.5 		17.5
v 7.25 		13.5 		22.165
v 7.25 		11.5 		22.165
v 6.021 		11.5 		26.326
v 9.75 		13.5 		17.835
v 9.75 		11.5 		17.835
v 10.268 		13.5 		12.232
v 10.268 		11.5 		12.232
v 8.5 		13.5 		28.5
v 8.826 		13.5 		28.479
v 10.022 		13.5 		18.017
v 10.022 		11.5 		18.017
v 6.978 		13.5 		21.983
v 10.483 		13.5 		15.522
v 6.978 		11.5 		21.983
v 10.483 		11.5 		15.522
v 10.483 		13.5 		12.478
v 10.483 		11.5 		12.478
v 6 		11.5 		26
v 10.268 		13.5 		15.768
v 10.268 		11.5 		15.768
v 6.335 		13.5 		21.25
v 6.517 		13.5 		21.522
v 8.826 		11.5 		28.479
v 6.732 		13.5 		21.768
v 6.021 		11.5 		25.674
v 6.732 		11.5 		21.768
v 10.665 		13.5 		12.75
v 10.022 		13.5 		15.983
v 10.022 		11.5 		15.983
v 10.665 		11.5 		12.75
v 10.268 		13.5 		18.232
v 8.826 		13.5 		22.479
v 10.268 		11.5 		18.232
v 9.75 		13.5 		16.165
v 9.75 		11.5 		16.165
v 6.517 		11.5 		21.522
v 9.147 		13.5 		22.415
v 6.085 		11.5 		25.353
v 9.457 		13.5 		22.31
v 10.483 		13.5 		18.478
v 10.81 		13.5 		13.043
v 10.483 		11.5 		18.478
v 6.335 		11.5 		21.25
v 10.81 		11.5 		13.043
v 7.853 		13.5 		28.415
v 8.174 		13.5 		28.479
v 8.5 		11.5 		28.5
v 10.915 		13.5 		13.353
v 10.915 		11.5 		13.353
v 9.75 		11.5 		23.835
v 10.665 		13.5 		27.25
v 9.75 		13.5 		28.165
v 10.022 		13.5 		27.983
v 10.665 		11.5 		27.25
v 10.268 		13.5 		27.768
v 10.483 		13.5 		27.522
v 10.979 		13.5 		13.674
v 10.022 		11.5 		24.017
v 10.979 		11.5 		13.674
v 9.75 		13.5 		22.165
v 10.022 		13.5 		21.983
v 10.268 		13.5 		21.768
v 10.483 		13.5 		21.522
v 10.665 		13.5 		21.25
v 10.81 		13.5 		20.957
v 10.915 		13.5 		20.647
v 10.979 		13.5 		20.326
v 11 		13.5 		14
v 10.665 		13.5 		18.75
v 10.81 		13.5 		19.043
v 11 		13.5 		20
v 10.665 		11.5 		18.75
v 10.979 		13.5 		19.674
v 10.915 		13.5 		19.353
v 11 		11.5 		14
v 10.483 		11.5 		27.522
v 8.826 		11.5 		17.521
v 9.147 		11.5 		17.585
v 10.81 		11.5 		19.043
v 10.268 		11.5 		24.232
v 9.457 		11.5 		17.69
v 10.268 		11.5 		27.768
v 6.335 		11.5 		18.75
v 10.979 		13.5 		14.326
v 6.517 		11.5 		18.478
v 10.915 		11.5 		19.353
v 10.979 		11.5 		14.326
v 10.022 		11.5 		27.983
v 10.483 		11.5 		24.478
v 9.75 		11.5 		28.165
v 10.979 		11.5 		19.674
v 10.915 		13.5 		14.647
v 10.915 		11.5 		14.647
v 10.665 		11.5 		24.75
v 6.732 		11.5 		12.232
v 6.978 		11.5 		12.017
v 8.5 		11.5 		23.5
v 7.25 		11.5 		11.835
v 8.826 		11.5 		23.521
v 9.147 		11.5 		23.585
v 11 		11.5 		20
v 6.085 		11.5 		14.647
v 6.021 		11.5 		14.326
v 10.81 		11.5 		25.043
v 10.979 		11.5 		20.326
v 6 		11.5 		20
v 6.19 		11.5 		25.043
v 7.25 		13.5 		11.835
v 6.021 		11.5 		19.674
v 6.978 		13.5 		12.017
v 6.335 		11.5 		24.75
v 6.085 		11.5 		19.353
v 6.732 		13.5 		12.232
v 6.517 		11.5 		24.478
v 6.19 		11.5 		19.043
v 10.915 		11.5 		20.647
v 6.732 		11.5 		24.232
v 6.978 		11.5 		24.017
v 7.25 		11.5 		23.835
v 7.543 		11.5 		23.69
v 7.853 		11.5 		23.585
v 8.174 		11.5 		23.521
v 6 		11.5 		14
v 6.517 		13.5 		12.478
v 6.19 		13.5 		20.957
v 6.19 		11.5 		20.957
v 6.335 		13.5 		12.75
v 6.021 		11.5 		13.674
v 6.085 		11.5 		13.353
v 6.085 		11.5 		20.647
v 6.19 		11.5 		13.043
v 6.335 		11.5 		12.75
v 6.021 		11.5 		20.326
v 6.517 		11.5 		12.478
v 6.19 		13.5 		13.043
v 6.085 		13.5 		20.647
v 6.085 		13.5 		13.353
v 9.457 		13.5 		16.31
v 6.021 		13.5 		13.674
v 9.457 		11.5 		16.31
v 10.81 		11.5 		20.957
v 6 		13.5 		14
v 6.021 		13.5 		14.326
v 6.085 		13.5 		14.647
v 6.021 		13.5 		20.326
v 9.147 		13.5 		16.415
v 9.147 		11.5 		16.415
v 8.826 		11.5 		11.521
v 9.147 		11.5 		11.585
v 10.665 		11.5 		21.25
v 9.457 		11.5 		11.69
v 8.826 		13.5 		16.479
v 8.826 		11.5 		16.479
v 6 		13.5 		20
v 9.457 		11.5 		22.31
v 10.483 		11.5 		21.522
v 9.147 		11.5 		22.415
v 9.457 		13.5 		11.69
v 10.915 		11.5 		25.353
v 9.147 		13.5 		11.585
v 8.826 		13.5 		11.521
v 8.826 		11.5 		22.479
v 10.268 		11.5 		21.768
v 8.5 		13.5 		16.5
v 6.021 		13.5 		19.674
v 8.5 		11.5 		16.5
v 10.022 		11.5 		21.983
v 6.085 		13.5 		19.353
v 10.979 		11.5 		25.674
v 8.174 		13.5 		16.479
v 11 		11.5 		26
v 8.174 		11.5 		16.479
v 10.979 		11.5 		26.326
v 10.915 		11.5 		26.647
v 9.75 		11.5 		22.165
v 6.19 		13.5 		19.043
v 10.81 		11.5 		26.957
v 7.853 		13.5 		16.415
v 7.853 		11.5 		16.415
v 7.543 		13.5 		16.31
v 7.543 		11.5 		16.31
v 7.25 		13.5 		16.165
v 8.826 		13.5 		17.521
v 9.147 		13.5 		17.585
v 7.25 		11.5 		16.165
v 8.174 		11.5 		28.479
v 7.853 		11.5 		28.415
v 9.457 		13.5 		17.69
v 6.335 		13.5 		18.75
v 6.517 		13.5 		18.478
# 288 vertices

g group_3_16777215

usemtl color_16777215
s 0

f 205 	206 	207
f 205 	207 	208
f 206 	209 	210
f 206 	210 	207
f 209 	216 	218
f 209 	218 	210
f 213 	214 	212
f 211 	212 	214
f 211 	214 	215
f 211 	215 	217
f 211 	217 	219
f 211 	219 	220
f 211 	220 	221
f 211 	221 	222
f 211 	222 	223
f 224 	286 	223
f 225 	286 	224
f 226 	227 	228
f 226 	228 	229
f 230 	231 	232
f 230 	232 	233
f 234 	237 	218
f 234 	218 	216
f 227 	235 	236
f 227 	236 	228
f 243 	244 	245
f 243 	245 	246
f 239 	358 	238
f 247 	310 	242
f 248 	310 	247
f 240 	242 	310
f 241 	250 	237
f 241 	237 	234
f 251 	253 	236
f 251 	236 	235
f 252 	254 	255
f 252 	255 	256
f 250 	241 	248
f 254 	262 	263
f 254 	263 	255
f 248 	264 	250
f 262 	266 	268
f 262 	268 	263
f 260 	267 	253
f 260 	253 	251
f 265 	269 	354
f 248 	247 	272
f 248 	272 	264
f 231 	249 	261
f 231 	261 	232
f 249 	282 	284
f 249 	284 	261
f 282 	288 	289
f 282 	289 	284
f 245 	257 	259
f 245 	259 	246
f 274 	225 	273
f 271 	273 	225
f 275 	225 	274
f 277 	225 	275
f 279 	225 	277
f 281 	225 	279
f 283 	225 	281
f 285 	225 	283
f 286 	225 	285
f 287 	223 	286
f 211 	223 	287
f 270 	271 	225
f 238 	353 	225
f 288 	292 	294
f 288 	294 	289
f 257 	295 	296
f 257 	296 	259
f 280 	297 	298
f 280 	298 	290
f 291 	299 	300
f 291 	300 	293
f 292 	301 	302
f 292 	302 	294
f 295 	303 	304
f 295 	304 	296
f 247 	242 	305
f 247 	305 	272
f 297 	308 	309
f 297 	309 	298
f 299 	315 	317
f 299 	317 	300
f 276 	278 	269
f 276 	269 	265
f 303 	314 	316
f 303 	316 	304
f 308 	318 	319
f 308 	319 	309
f 242 	240 	320
f 242 	320 	305
f 315 	321 	322
f 315 	322 	317
f 306 	312 	313
f 306 	313 	307
f 318 	329 	332
f 318 	332 	319
f 239 	327 	320
f 239 	320 	240
f 314 	326 	328
f 314 	328 	316
f 330 	331 	322
f 330 	322 	321
f 312 	333 	335
f 312 	335 	313
f 336 	337 	331
f 336 	331 	330
f 324 	338 	328
f 324 	328 	326
f 238 	340 	327
f 238 	327 	239
f 311 	325 	278
f 311 	278 	276
f 326 	314 	324
f 323 	324 	314
f 323 	314 	303
f 323 	303 	295
f 323 	295 	257
f 323 	257 	245
f 323 	245 	244
f 323 	244 	334
f 323 	334 	339
f 323 	339 	341
f 323 	345 	338
f 323 	338 	324
f 329 	343 	346
f 329 	346 	332
f 340 	238 	225
f 276 	239 	311
f 265 	239 	276
f 354 	239 	265
f 310 	311 	239
f 241 	310 	248
f 234 	310 	241
f 239 	240 	310
f 310 	234 	216
f 310 	216 	209
f 310 	209 	206
f 310 	206 	205
f 310 	205 	347
f 310 	347 	348
f 310 	349 	325
f 310 	325 	311
f 343 	350 	351
f 343 	351 	346
f 352 	258 	287
f 211 	287 	258
f 350 	359 	361
f 350 	361 	351
f 287 	286 	360
f 287 	360 	352
f 333 	342 	344
f 333 	344 	335
f 270 	353 	356
f 342 	371 	374
f 342 	374 	344
f 353 	358 	378
f 353 	378 	356
f 359 	370 	377
f 359 	377 	361
f 286 	285 	382
f 286 	382 	360
f 365 	492 	364
f 363 	364 	492
f 366 	492 	365
f 367 	492 	366
f 368 	492 	367
f 369 	492 	368
f 373 	492 	369
f 375 	492 	373
f 376 	492 	375
f 362 	363 	492
f 358 	239 	357
f 355 	357 	239
f 353 	238 	358
f 270 	225 	353
f 354 	355 	239
f 358 	357 	384
f 358 	384 	378
f 377 	370 	386
f 377 	386 	389
f 372 	376 	388
f 372 	388 	381
f 355 	390 	384
f 355 	384 	357
f 380 	385 	379
f 383 	385 	380
f 302 	379 	385
f 307 	385 	383
f 385 	387 	302
f 294 	302 	387
f 294 	387 	233
f 294 	233 	232
f 261 	289 	232
f 284 	289 	261
f 294 	232 	289
f 285 	283 	391
f 285 	391 	382
f 354 	392 	390
f 354 	390 	355
f 376 	375 	393
f 376 	393 	388
f 386 	394 	395
f 386 	395 	389
f 283 	281 	396
f 283 	396 	391
f 269 	392 	354
f 344 	457 	335
f 313 	335 	457
f 374 	469 	344
f 381 	469 	374
f 375 	373 	403
f 375 	403 	393
f 281 	279 	406
f 281 	406 	396
f 403 	373 	369
f 403 	369 	407
f 293 	395 	291
f 394 	291 	395
f 381 	374 	372
f 371 	372 	374
f 369 	368 	418
f 369 	418 	407
f 428 	345 	427
f 323 	427 	345
f 402 	413 	401
f 258 	413 	402
f 340 	409 	258
f 409 	413 	258
f 399 	401 	413
f 399 	413 	416
f 399 	416 	419
f 399 	419 	420
f 399 	420 	421
f 399 	421 	422
f 399 	422 	423
f 399 	423 	424
f 414 	307 	411
f 417 	307 	414
f 385 	307 	417
f 408 	411 	307
f 459 	464 	313
f 345 	428 	307
f 428 	432 	307
f 432 	435 	307
f 408 	307 	435
f 400 	468 	398
f 404 	398 	267
f 405 	398 	404
f 405 	425 	398
f 397 	398 	425
f 430 	436 	425
f 431 	436 	430
f 433 	434 	431
f 436 	431 	434
f 397 	425 	436
f 336 	440 	442
f 336 	442 	337
f 427 	438 	432
f 427 	432 	428
f 439 	454 	437
f 429 	437 	454
f 441 	454 	439
f 444 	454 	441
f 426 	429 	454
f 445 	466 	444
f 446 	466 	445
f 260 	466 	446
f 368 	367 	443
f 368 	443 	418
f 438 	447 	435
f 438 	435 	432
f 440 	448 	449
f 440 	449 	442
f 367 	366 	452
f 367 	452 	443
f 448 	454 	455
f 448 	455 	449
f 340 	258 	327
f 320 	327 	258
f 250 	264 	258
f 264 	272 	258
f 272 	305 	258
f 320 	258 	305
f 366 	365 	458
f 366 	458 	452
f 279 	277 	461
f 279 	461 	406
f 447 	456 	408
f 447 	408 	435
f 412 	280 	460
f 412 	460 	462
f 412 	462 	463
f 412 	463 	266
f 412 	266 	262
f 412 	262 	254
f 252 	410 	254
f 412 	254 	410
f 451 	317 	450
f 453 	317 	451
f 268 	450 	317
f 256 	255 	317
f 255 	263 	317
f 263 	268 	317
f 345 	307 	338
f 328 	338 	307
f 464 	243 	313
f 307 	313 	243
f 243 	246 	307
f 246 	259 	307
f 259 	296 	307
f 304 	307 	296
f 316 	307 	304
f 328 	307 	316
f 365 	364 	465
f 365 	465 	458
f 454 	466 	468
f 454 	468 	455
f 467 	411 	408
f 467 	408 	456
f 363 	469 	465
f 363 	465 	364
f 470 	414 	411
f 470 	411 	467
f 468 	466 	472
f 468 	472 	474
f 362 	477 	469
f 362 	469 	363
f 478 	417 	414
f 478 	414 	470
f 218 	237 	360
f 382 	218 	360
f 391 	218 	382
f 396 	210 	391
f 406 	210 	396
f 461 	210 	406
f 471 	210 	461
f 473 	210 	471
f 475 	210 	473
f 356 	476 	479
f 476 	210 	475
f 237 	250 	360
f 472 	480 	481
f 472 	481 	474
f 385 	417 	478
f 480 	482 	483
f 480 	483 	481
f 309 	319 	298
f 290 	298 	319
f 290 	319 	332
f 290 	332 	346
f 290 	346 	351
f 290 	351 	361
f 290 	361 	377
f 389 	395 	290
f 395 	293 	290
f 293 	300 	290
f 377 	389 	290
f 457 	344 	477
f 477 	344 	469
f 457 	459 	313
f 388 	469 	381
f 393 	469 	388
f 465 	469 	393
f 403 	458 	393
f 407 	458 	403
f 418 	458 	407
f 443 	452 	418
f 458 	418 	452
f 465 	393 	458
f 457 	477 	341
f 362 	341 	477
f 302 	301 	485
f 302 	485 	379
f 341 	339 	459
f 341 	459 	457
f 277 	275 	471
f 277 	471 	461
f 485 	486 	380
f 485 	380 	379
f 482 	484 	487
f 482 	487 	483
f 370 	412 	386
f 394 	386 	412
f 359 	412 	370
f 350 	412 	359
f 343 	412 	350
f 329 	412 	343
f 318 	412 	329
f 308 	412 	318
f 297 	412 	308
f 280 	412 	297
f 291 	394 	412
f 258 	352 	250
f 352 	360 	250
f 269 	278 	476
f 278 	325 	476
f 325 	349 	476
f 349 	488 	476
f 488 	489 	476
f 489 	208 	476
f 207 	476 	208
f 210 	476 	207
f 218 	391 	210
f 486 	490 	383
f 486 	383 	380
f 484 	226 	229
f 484 	229 	487
f 275 	274 	473
f 275 	473 	471
f 339 	334 	464
f 339 	464 	459
f 490 	306 	307
f 490 	307 	383
f 267 	398 	253
f 253 	398 	236
f 442 	400 	337
f 256 	331 	400
f 442 	449 	400
f 449 	455 	400
f 455 	468 	400
f 474 	398 	468
f 481 	398 	474
f 481 	483 	398
f 483 	487 	398
f 487 	229 	398
f 229 	228 	398
f 236 	398 	228
f 269 	476 	392
f 390 	392 	476
f 384 	390 	476
f 356 	378 	476
f 384 	476 	378
f 473 	274 	273
f 473 	273 	475
f 334 	244 	243
f 334 	243 	464
f 225 	409 	340
f 273 	271 	476
f 273 	476 	475
f 478 	491 	385
f 337 	400 	331
f 331 	256 	322
f 300 	317 	290
f 453 	290 	317
f 322 	256 	317
f 225 	224 	413
f 225 	413 	409
f 271 	270 	479
f 271 	479 	476
f 260 	251 	235
f 260 	235 	227
f 260 	227 	226
f 260 	226 	484
f 260 	484 	482
f 260 	482 	480
f 260 	480 	472
f 260 	472 	466
f 454 	444 	466
f 448 	412 	454
f 440 	412 	448
f 336 	412 	440
f 412 	415 	454
f 415 	426 	454
f 224 	223 	416
f 224 	416 	413
f 491 	492 	387
f 491 	387 	385
f 223 	222 	419
f 223 	419 	416
f 270 	356 	479
f 260 	446 	404
f 260 	404 	267
f 492 	230 	233
f 492 	233 	387
f 222 	221 	420
f 222 	420 	419
f 315 	412 	321
f 330 	321 	412
f 299 	412 	315
f 291 	412 	299
f 336 	330 	412
f 446 	445 	405
f 446 	405 	404
f 349 	310 	348
f 349 	348 	488
f 221 	220 	421
f 221 	421 	420
f 220 	219 	422
f 220 	422 	421
f 348 	347 	489
f 348 	489 	488
f 445 	444 	425
f 445 	425 	405
f 219 	217 	423
f 219 	423 	422
f 347 	205 	208
f 347 	208 	489
f 217 	215 	424
f 217 	424 	423
f 444 	441 	430
f 444 	430 	425
f 376 	306 	490
f 376 	490 	486
f 376 	486 	485
f 376 	485 	301
f 376 	301 	292
f 376 	292 	288
f 376 	288 	282
f 376 	282 	249
f 376 	249 	231
f 376 	231 	230
f 376 	230 	492
f 341 	362 	491
f 478 	341 	491
f 215 	214 	399
f 215 	399 	424
f 441 	439 	431
f 441 	431 	430
f 214 	213 	401
f 214 	401 	399
f 342 	376 	371
f 333 	376 	342
f 312 	376 	333
f 306 	376 	312
f 372 	371 	376
f 439 	437 	433
f 439 	433 	431
f 213 	212 	402
f 213 	402 	401
f 212 	211 	258
f 212 	258 	402
f 437 	429 	434
f 437 	434 	433
f 456 	341 	467
f 470 	467 	341
f 447 	341 	456
f 438 	341 	447
f 427 	341 	438
f 323 	341 	427
f 478 	470 	341
f 492 	491 	362
f 429 	426 	436
f 429 	436 	434
f 426 	415 	397
f 426 	397 	436
f 415 	412 	398
f 415 	398 	397
f 412 	410 	400
f 412 	400 	398
f 410 	252 	400
f 268 	266 	463
f 268 	463 	450
f 463 	462 	451
f 463 	451 	450
f 462 	460 	453
f 462 	453 	451
f 460 	280 	290
f 460 	290 	453
f 252 	256 	400
# 564 faces

 #end of obj_3

o obj_4
v 22.457 		13.5 		23.69
v 22.457 		11.5 		23.69
v 22.147 		13.5 		23.585
v 20.543 		13.5 		28.31
v 21.826 		13.5 		23.521
v 21.5 		13.5 		23.5
v 20.25 		13.5 		28.165
v 19.19 		13.5 		26.957
v 19.19 		11.5 		26.957
v 20.25 		11.5 		28.165
v 20.543 		11.5 		28.31
v 19.085 		13.5 		26.647
v 19.085 		11.5 		26.647
v 19.335 		13.5 		21.25
v 19.517 		13.5 		21.522
v 19.732 		13.5 		21.768
v 19.978 		13.5 		21.983
v 20.25 		13.5 		22.165
v 20.543 		13.5 		22.31
v 20.853 		13.5 		22.415
v 21.174 		13.5 		22.479
v 21.5 		13.5 		22.5
v 21.826 		13.5 		22.479
v 20.543 		13.5 		11.69
v 22.147 		13.5 		22.415
v 20.853 		13.5 		11.585
v 19.978 		13.5 		27.983
v 20.853 		11.5 		11.585
v 19.978 		13.5 		15.983
v 21.174 		13.5 		23.521
v 21.5 		11.5 		22.5
v 21.174 		11.5 		22.479
v 19.732 		13.5 		15.768
v 19.732 		11.5 		15.768
v 19.978 		11.5 		15.983
v 19.978 		11.5 		27.983
v 22.457 		13.5 		22.31
v 19.021 		13.5 		26.326
v 20.853 		11.5 		22.415
v 20.543 		11.5 		11.69
v 19.021 		11.5 		26.326
v 20.853 		13.5 		23.585
v 19.732 		13.5 		27.768
v 19.517 		13.5 		15.522
v 20.543 		13.5 		23.69
v 19.517 		11.5 		15.522
v 21.174 		13.5 		11.521
v 20.543 		11.5 		22.31
v 20.25 		13.5 		23.835
v 19.732 		11.5 		27.768
v 19 		13.5 		26
v 19.978 		13.5 		24.017
v 19 		11.5 		26
v 19.732 		13.5 		24.232
v 19.517 		13.5 		24.478
v 19.732 		13.5 		18.232
v 19.335 		13.5 		24.75
v 19.978 		13.5 		18.017
v 19.517 		13.5 		27.522
v 19.978 		11.5 		18.017
v 19.517 		11.5 		27.522
v 19.732 		11.5 		18.232
v 19.19 		13.5 		25.043
v 21.174 		11.5 		11.521
v 19.021 		13.5 		25.674
v 19.021 		11.5 		25.674
v 20.25 		11.5 		22.165
v 19.335 		13.5 		27.25
v 20.25 		13.5 		17.835
v 19.335 		11.5 		27.25
v 20.25 		11.5 		17.835
v 22.75 		13.5 		22.165
v 19.978 		11.5 		21.983
v 20.543 		13.5 		17.69
v 20.543 		11.5 		17.69
v 19.085 		13.5 		25.353
v 19.732 		11.5 		21.768
v 19.085 		11.5 		25.353
v 23.022 		13.5 		21.983
v 20.853 		13.5 		17.585
v 19.335 		13.5 		15.25
v 21.5 		13.5 		11.5
v 20.853 		11.5 		17.585
v 19.335 		11.5 		15.25
v 23.268 		13.5 		21.768
v 21.5 		11.5 		11.5
v 23.483 		13.5 		21.522
v 19.517 		11.5 		21.522
v 23.665 		13.5 		21.25
v 23.81 		13.5 		20.957
v 23.915 		13.5 		20.647
v 23.979 		13.5 		20.326
v 24 		13.5 		20
v 23.979 		13.5 		19.674
v 23.915 		13.5 		19.353
v 23.81 		13.5 		19.043
v 19.19 		13.5 		14.957
v 19.335 		11.5 		21.25
v 19.19 		11.5 		14.957
v 22.457 		13.5 		28.31
v 22.457 		11.5 		28.31
v 21.174 		13.5 		17.521
v 21.174 		11.5 		17.521
v 22.147 		13.5 		28.415
v 22.75 		13.5 		11.835
v 22.147 		11.5 		28.415
v 22.75 		11.5 		11.835
v 22.75 		13.5 		23.835
v 22.75 		11.5 		23.835
v 21.5 		13.5 		17.5
v 21.826 		13.5 		28.479
v 21.5 		11.5 		17.5
v 19.732 		11.5 		12.232
v 23.81 		11.5 		19.043
v 19.978 		11.5 		12.017
v 21.826 		11.5 		28.479
v 22.75 		13.5 		17.835
v 22.75 		11.5 		17.835
v 23.022 		13.5 		12.017
v 23.022 		13.5 		24.017
v 23.022 		11.5 		12.017
v 23.022 		11.5 		24.017
v 23.81 		13.5 		26.957
v 23.915 		13.5 		26.647
v 23.979 		13.5 		26.326
v 23.915 		11.5 		19.353
v 20.25 		11.5 		11.835
v 24 		13.5 		26
v 21.5 		13.5 		28.5
v 21.5 		11.5 		28.5
v 23.979 		13.5 		25.674
v 23.915 		13.5 		25.353
v 23.81 		13.5 		25.043
v 23.665 		13.5 		24.75
v 23.268 		13.5 		24.232
v 19.085 		11.5 		14.647
v 23.268 		11.5 		24.232
v 23.483 		13.5 		24.478
v 19.021 		11.5 		14.326
v 19 		11.5 		14
v 23.665 		13.5 		27.25
v 19.021 		11.5 		13.674
v 23.665 		11.5 		27.25
v 19.085 		11.5 		13.353
v 23.268 		13.5 		12.232
v 19.19 		11.5 		13.043
v 23.268 		11.5 		12.232
v 19.335 		11.5 		12.75
v 23.979 		11.5 		19.674
v 23.022 		13.5 		18.017
v 23.022 		11.5 		18.017
v 23.483 		13.5 		27.522
v 23.483 		11.5 		24.478
v 19.517 		11.5 		12.478
v 24 		11.5 		20
v 23.483 		11.5 		27.522
v 23.81 		13.5 		14.957
v 23.81 		11.5 		14.957
v 23.483 		13.5 		12.478
v 23.483 		11.5 		12.478
v 23.979 		11.5 		20.326
v 23.665 		11.5 		24.75
v 23.665 		13.5 		15.25
v 23.268 		13.5 		27.768
v 23.665 		11.5 		15.25
v 23.268 		11.5 		27.768
v 23.665 		13.5 		12.75
v 23.665 		11.5 		12.75
v 23.915 		11.5 		20.647
v 23.022 		13.5 		27.983
v 21.826 		11.5 		11.521
v 23.483 		13.5 		15.522
v 23.483 		11.5 		15.522
v 23.81 		11.5 		25.043
v 23.81 		13.5 		13.043
v 22.147 		11.5 		11.585
v 23.022 		11.5 		27.983
v 22.457 		11.5 		11.69
v 20.853 		13.5 		28.415
v 21.174 		13.5 		28.479
v 23.81 		11.5 		13.043
v 23.915 		11.5 		25.353
v 23.268 		13.5 		18.232
v 23.268 		13.5 		15.768
v 23.268 		11.5 		15.768
v 23.81 		11.5 		20.957
v 22.75 		13.5 		28.165
v 23.979 		11.5 		25.674
v 23.022 		13.5 		15.983
v 22.75 		11.5 		28.165
v 23.665 		11.5 		21.25
v 23.022 		11.5 		15.983
v 23.915 		13.5 		13.353
v 23.915 		11.5 		13.353
v 24 		11.5 		26
v 22.75 		13.5 		16.165
v 22.75 		11.5 		16.165
v 23.979 		13.5 		13.674
v 23.979 		11.5 		13.674
v 23.979 		11.5 		26.326
v 23.483 		11.5 		21.522
v 23.268 		11.5 		18.232
v 24 		13.5 		14
v 24 		11.5 		14
v 23.483 		13.5 		18.478
v 23.483 		11.5 		18.478
v 23.268 		11.5 		21.768
v 21.5 		11.5 		23.5
v 21.826 		11.5 		23.521
v 22.147 		11.5 		23.585
v 23.979 		11.5 		14.326
v 23.915 		11.5 		14.647
v 23.915 		11.5 		26.647
v 19.19 		11.5 		25.043
v 19.335 		11.5 		24.75
v 19.517 		11.5 		24.478
v 19.732 		11.5 		24.232
v 19.978 		11.5 		24.017
v 20.25 		11.5 		23.835
v 20.25 		13.5 		11.835
v 20.543 		11.5 		23.69
v 23.022 		11.5 		21.983
v 23.979 		13.5 		14.326
v 20.853 		11.5 		23.585
v 21.174 		11.5 		23.521
v 19.978 		13.5 		12.017
v 19.732 		13.5 		12.232
v 19.517 		13.5 		12.478
v 19.335 		13.5 		12.75
v 23.915 		13.5 		14.647
v 19.19 		13.5 		13.043
v 19.085 		13.5 		13.353
v 19.021 		13.5 		13.674
v 23.81 		11.5 		26.957
v 19 		13.5 		14
v 23.665 		13.5 		18.75
v 23.665 		11.5 		18.75
v 19.021 		13.5 		14.326
v 19.085 		13.5 		14.647
v 22.75 		11.5 		22.165
v 21.826 		11.5 		17.521
v 22.147 		11.5 		17.585
v 19.19 		13.5 		20.957
v 22.457 		11.5 		17.69
v 19.19 		11.5 		20.957
v 21.174 		11.5 		28.479
v 22.457 		11.5 		16.31
v 19.085 		13.5 		20.647
v 19.085 		11.5 		20.647
v 19.335 		11.5 		18.75
v 20.853 		11.5 		28.415
v 19.517 		11.5 		18.478
v 22.147 		11.5 		16.415
v 22.457 		13.5 		11.69
v 21.826 		11.5 		16.479
v 22.147 		13.5 		11.585
v 21.826 		13.5 		11.521
v 21.5 		11.5 		16.5
v 21.174 		11.5 		16.479
v 20.853 		11.5 		16.415
v 20.543 		11.5 		16.31
v 22.457 		13.5 		16.31
v 20.25 		11.5 		16.165
v 19.021 		13.5 		20.326
v 19.021 		11.5 		20.326
v 22.147 		13.5 		16.415
v 19 		13.5 		20
v 19 		11.5 		20
v 21.826 		13.5 		16.479
v 19.021 		13.5 		19.674
v 19.021 		11.5 		19.674
v 19.085 		11.5 		19.353
v 19.19 		11.5 		19.043
v 21.5 		13.5 		16.5
v 19.085 		13.5 		19.353
v 19.19 		13.5 		19.043
v 21.174 		13.5 		16.479
v 20.853 		13.5 		16.415
v 20.543 		13.5 		16.31
v 22.457 		11.5 		22.31
v 20.25 		13.5 		16.165
v 22.147 		11.5 		22.415
v 21.826 		11.5 		22.479
v 21.826 		13.5 		17.521
v 22.147 		13.5 		17.585
v 22.457 		13.5 		17.69
v 19.517 		13.5 		18.478
v 19.335 		13.5 		18.75
# 288 vertices

g group_4_16777215

usemtl color_16777215
s 0

f 493 	601 	494
f 500 	501 	562
f 496 	499 	502
f 496 	502 	503
f 500 	504 	505
f 500 	505 	501
f 523 	514 	513
f 523 	513 	524
f 521 	525 	526
f 521 	526 	527
f 499 	519 	528
f 499 	528 	502
f 516 	518 	520
f 516 	520 	532
f 513 	512 	531
f 513 	531 	524
f 504 	530 	533
f 504 	533 	505
f 508 	509 	507
f 506 	507 	509
f 506 	509 	510
f 506 	510 	511
f 506 	511 	512
f 506 	512 	513
f 506 	513 	514
f 506 	514 	515
f 506 	515 	517
f 506 	517 	529
f 512 	511 	540
f 512 	540 	531
f 530 	543 	545
f 530 	545 	533
f 519 	535 	542
f 519 	542 	528
f 548 	550 	552
f 548 	552 	554
f 551 	553 	542
f 551 	542 	535
f 518 	539 	556
f 518 	556 	520
f 557 	558 	545
f 557 	545 	543
f 511 	510 	559
f 511 	559 	540
f 497 	498 	495
f 493 	495 	498
f 493 	498 	522
f 493 	522 	534
f 493 	534 	537
f 493 	537 	541
f 493 	541 	544
f 493 	544 	546
f 493 	546 	547
f 549 	612 	547
f 555 	612 	549
f 550 	561 	563
f 550 	563 	552
f 510 	509 	565
f 510 	565 	559
f 560 	562 	553
f 560 	553 	551
f 525 	536 	538
f 525 	538 	526
f 561 	566 	567
f 561 	567 	563
f 509 	508 	569
f 509 	569 	565
f 539 	574 	578
f 539 	578 	556
f 573 	576 	538
f 573 	538 	536
f 507 	580 	569
f 507 	569 	508
f 562 	560 	500
f 566 	572 	575
f 566 	575 	567
f 571 	779 	564
f 577 	779 	571
f 579 	779 	577
f 581 	779 	579
f 582 	779 	581
f 583 	779 	582
f 584 	779 	583
f 585 	779 	584
f 586 	779 	585
f 587 	779 	586
f 588 	779 	587
f 568 	570 	558
f 568 	558 	557
f 506 	590 	580
f 506 	580 	507
f 592 	593 	679
f 557 	543 	568
f 555 	568 	543
f 555 	543 	530
f 555 	530 	504
f 555 	504 	500
f 570 	568 	555
f 572 	594 	595
f 572 	595 	575
f 596 	598 	593
f 596 	593 	592
f 737 	590 	506
f 493 	600 	601
f 594 	602 	604
f 594 	604 	595
f 603 	608 	598
f 603 	598 	596
f 600 	612 	614
f 600 	614 	601
f 597 	611 	613
f 597 	613 	599
f 621 	622 	608
f 621 	608 	603
f 589 	591 	576
f 589 	576 	573
f 588 	587 	618
f 588 	618 	606
f 612 	627 	629
f 612 	629 	614
f 620 	555 	617
f 616 	617 	555
f 623 	555 	620
f 624 	555 	623
f 625 	555 	624
f 626 	555 	625
f 630 	555 	626
f 627 	555 	630
f 612 	555 	627
f 600 	547 	612
f 493 	547 	600
f 615 	616 	555
f 615 	633 	635
f 587 	586 	641
f 587 	641 	618
f 609 	642 	643
f 609 	643 	610
f 611 	637 	639
f 611 	639 	613
f 619 	750 	607
f 628 	607 	591
f 631 	607 	628
f 631 	632 	607
f 605 	607 	632
f 634 	646 	632
f 636 	646 	634
f 638 	640 	636
f 646 	636 	640
f 605 	632 	646
f 586 	585 	647
f 586 	647 	641
f 627 	630 	645
f 627 	645 	629
f 633 	644 	648
f 633 	648 	635
f 637 	651 	652
f 637 	652 	639
f 647 	585 	584
f 647 	584 	653
f 644 	656 	658
f 644 	658 	648
f 630 	626 	654
f 630 	654 	645
f 649 	655 	657
f 649 	657 	650
f 651 	659 	660
f 651 	660 	652
f 626 	625 	666
f 626 	666 	654
f 655 	664 	665
f 655 	665 	657
f 584 	583 	661
f 584 	661 	653
f 596 	555 	603
f 592 	555 	596
f 679 	555 	592
f 621 	603 	555
f 500 	560 	555
f 560 	551 	555
f 551 	535 	555
f 535 	519 	555
f 519 	499 	555
f 499 	496 	555
f 496 	671 	555
f 671 	672 	555
f 621 	555 	672
f 659 	667 	673
f 659 	673 	660
f 625 	624 	674
f 625 	674 	666
f 662 	669 	658
f 662 	658 	656
f 664 	676 	677
f 664 	677 	665
f 668 	665 	663
f 670 	665 	668
f 578 	663 	665
f 532 	520 	665
f 520 	556 	665
f 556 	578 	665
f 583 	582 	678
f 583 	678 	661
f 624 	623 	680
f 624 	680 	674
f 679 	682 	669
f 679 	669 	662
f 582 	581 	683
f 582 	683 	678
f 644 	555 	656
f 662 	656 	555
f 633 	555 	644
f 615 	555 	633
f 679 	662 	555
f 681 	684 	677
f 681 	677 	676
f 667 	685 	686
f 667 	686 	673
f 623 	620 	687
f 623 	687 	680
f 688 	689 	684
f 688 	684 	681
f 593 	682 	679
f 685 	690 	691
f 685 	691 	686
f 581 	579 	693
f 581 	693 	683
f 642 	675 	694
f 642 	694 	643
f 687 	620 	617
f 687 	617 	692
f 690 	695 	696
f 690 	696 	691
f 579 	577 	699
f 579 	699 	693
f 617 	616 	705
f 617 	705 	692
f 639 	652 	613
f 599 	613 	652
f 599 	652 	660
f 599 	660 	673
f 599 	673 	686
f 599 	686 	691
f 599 	691 	696
f 703 	704 	599
f 704 	650 	599
f 650 	657 	599
f 696 	703 	599
f 696 	695 	715
f 696 	715 	703
f 702 	707 	701
f 570 	706 	702
f 706 	707 	702
f 700 	701 	707
f 700 	707 	708
f 700 	708 	709
f 700 	709 	710
f 700 	710 	711
f 700 	711 	713
f 700 	713 	716
f 700 	716 	717
f 571 	714 	699
f 571 	699 	577
f 675 	697 	698
f 675 	698 	694
f 715 	722 	704
f 715 	704 	703
f 616 	615 	726
f 616 	726 	705
f 697 	728 	729
f 697 	729 	698
f 724 	761 	723
f 721 	723 	761
f 725 	761 	724
f 727 	761 	725
f 720 	721 	761
f 730 	766 	727
f 731 	766 	730
f 589 	766 	731
f 564 	732 	714
f 564 	714 	571
f 615 	635 	726
f 606 	729 	588
f 728 	588 	729
f 570 	702 	558
f 545 	558 	702
f 542 	553 	601
f 562 	501 	702
f 501 	505 	702
f 505 	533 	702
f 545 	702 	533
f 622 	621 	672
f 622 	672 	738
f 506 	735 	737
f 672 	671 	743
f 672 	743 	738
f 650 	704 	649
f 722 	649 	704
f 671 	496 	503
f 671 	503 	743
f 732 	564 	529
f 734 	760 	733
f 736 	760 	734
f 610 	760 	736
f 643 	760 	610
f 595 	742 	744
f 595 	744 	554
f 595 	554 	552
f 563 	575 	552
f 567 	575 	563
f 595 	552 	575
f 735 	740 	741
f 735 	741 	737
f 688 	754 	739
f 688 	739 	689
f 591 	607 	576
f 576 	607 	538
f 739 	619 	689
f 532 	684 	619
f 739 	745 	619
f 745 	747 	619
f 747 	750 	619
f 751 	607 	750
f 752 	607 	751
f 752 	753 	607
f 753 	755 	607
f 755 	527 	607
f 527 	526 	607
f 538 	607 	526
f 718 	597 	746
f 718 	746 	748
f 718 	748 	749
f 718 	749 	574
f 718 	574 	539
f 718 	539 	518
f 516 	712 	518
f 718 	518 	712
f 740 	756 	757
f 740 	757 	741
f 698 	741 	694
f 694 	741 	643
f 729 	741 	698
f 604 	733 	760
f 754 	758 	745
f 754 	745 	739
f 756 	759 	760
f 756 	760 	757
f 629 	645 	614
f 601 	614 	645
f 601 	645 	654
f 601 	654 	666
f 601 	666 	674
f 601 	674 	680
f 601 	680 	687
f 601 	687 	692
f 705 	601 	692
f 726 	601 	705
f 635 	601 	726
f 601 	553 	494
f 689 	619 	684
f 684 	532 	677
f 657 	665 	599
f 670 	599 	665
f 677 	532 	665
f 758 	761 	747
f 758 	747 	745
f 762 	763 	760
f 762 	760 	759
f 589 	731 	628
f 589 	628 	591
f 761 	766 	750
f 761 	750 	747
f 731 	730 	631
f 731 	631 	628
f 767 	764 	763
f 767 	763 	762
f 764 	595 	763
f 765 	595 	764
f 742 	595 	765
f 760 	763 	595
f 741 	729 	737
f 595 	604 	760
f 741 	757 	643
f 760 	643 	757
f 730 	727 	632
f 730 	632 	631
f 695 	718 	715
f 722 	715 	718
f 690 	718 	695
f 685 	718 	690
f 667 	718 	685
f 659 	718 	667
f 651 	718 	659
f 637 	718 	651
f 611 	718 	637
f 597 	718 	611
f 649 	722 	718
f 750 	766 	769
f 750 	769 	751
f 768 	765 	764
f 768 	764 	767
f 727 	725 	634
f 727 	634 	632
f 725 	724 	636
f 725 	636 	634
f 769 	770 	752
f 769 	752 	751
f 742 	765 	768
f 562 	702 	553
f 702 	494 	553
f 593 	598 	601
f 598 	608 	601
f 608 	622 	601
f 622 	738 	601
f 738 	743 	601
f 743 	503 	601
f 502 	601 	503
f 528 	601 	502
f 542 	601 	528
f 724 	723 	638
f 724 	638 	636
f 723 	721 	640
f 723 	640 	638
f 770 	771 	753
f 770 	753 	752
f 529 	772 	732
f 771 	773 	755
f 771 	755 	753
f 529 	517 	774
f 529 	774 	772
f 773 	521 	527
f 773 	527 	755
f 721 	720 	646
f 721 	646 	640
f 737 	729 	590
f 590 	729 	580
f 569 	580 	606
f 732 	772 	606
f 772 	774 	606
f 774 	775 	606
f 775 	523 	606
f 523 	524 	606
f 524 	531 	606
f 531 	540 	606
f 559 	606 	540
f 565 	606 	559
f 569 	606 	565
f 589 	573 	536
f 589 	536 	525
f 589 	525 	521
f 589 	521 	773
f 589 	773 	771
f 589 	771 	770
f 589 	770 	769
f 589 	769 	766
f 761 	727 	766
f 758 	718 	761
f 754 	718 	758
f 688 	718 	754
f 718 	719 	761
f 719 	720 	761
f 517 	515 	775
f 517 	775 	774
f 593 	601 	682
f 669 	682 	601
f 658 	669 	601
f 635 	648 	601
f 658 	601 	648
f 720 	719 	605
f 720 	605 	646
f 515 	514 	523
f 515 	523 	775
f 732 	606 	714
f 606 	618 	714
f 606 	580 	729
f 618 	641 	714
f 641 	647 	714
f 699 	714 	647
f 653 	693 	647
f 661 	693 	653
f 678 	683 	661
f 693 	661 	683
f 699 	647 	693
f 719 	718 	607
f 719 	607 	605
f 555 	706 	570
f 604 	602 	776
f 604 	776 	733
f 718 	712 	619
f 718 	619 	607
f 664 	718 	676
f 681 	676 	718
f 655 	718 	664
f 649 	718 	655
f 688 	681 	718
f 712 	516 	619
f 776 	777 	734
f 776 	734 	733
f 555 	549 	707
f 555 	707 	706
f 578 	574 	749
f 578 	749 	663
f 777 	778 	736
f 777 	736 	734
f 749 	748 	668
f 749 	668 	663
f 549 	547 	708
f 549 	708 	707
f 610 	736 	609
f 778 	609 	736
f 748 	746 	670
f 748 	670 	668
f 588 	609 	778
f 588 	778 	777
f 588 	777 	776
f 588 	776 	602
f 588 	602 	594
f 588 	594 	572
f 588 	572 	566
f 588 	566 	561
f 588 	561 	550
f 588 	550 	548
f 588 	548 	779
f 529 	564 	780
f 768 	529 	780
f 768 	780 	742
f 746 	597 	599
f 746 	599 	670
f 547 	546 	709
f 547 	709 	708
f 516 	532 	619
f 588 	728 	697
f 588 	697 	675
f 588 	675 	642
f 642 	609 	588
f 780 	779 	744
f 780 	744 	742
f 546 	544 	710
f 546 	710 	709
f 779 	548 	554
f 779 	554 	744
f 544 	541 	711
f 544 	711 	710
f 759 	529 	762
f 767 	762 	529
f 756 	529 	759
f 740 	529 	756
f 735 	529 	740
f 506 	529 	735
f 768 	767 	529
f 779 	780 	564
f 541 	537 	713
f 541 	713 	711
f 537 	534 	716
f 537 	716 	713
f 534 	522 	717
f 534 	717 	716
f 522 	498 	700
f 522 	700 	717
f 498 	497 	701
f 498 	701 	700
f 497 	495 	702
f 497 	702 	701
f 495 	493 	494
f 495 	494 	702
# 564 faces

 #end of obj_4

o obj_5
v 20.25 		15.335 		10.5
v 19.978 		15.517 		10.5
v 19.978 		15.517 		8.5
v 20.25 		15.335 		8.5
v 19.732 		15.732 		10.5
v 19.732 		15.732 		8.5
v 23.979 		17.826 		10.5
v 24 		17.5 		10.5
v 24 		17.5 		8.5
v 19.517 		15.978 		10.5
v 19.517 		15.978 		8.5
v 19.517 		19.022 		10.5
v 23.979 		17.826 		8.5
v 19.732 		19.268 		10.5
v 19.732 		19.268 		8.5
v 19.517 		19.022 		8.5
v 19.978 		19.483 		10.5
v 19.978 		19.483 		8.5
v 6.021 		29.826 		10.5
v 6.021 		29.826 		8.5
v 19.335 		16.25 		10.5
v 19.335 		16.25 		8.5
v 10.268 		27.732 		10.5
v 10.022 		27.517 		10.5
v 20.25 		19.665 		10.5
v 20.25 		19.665 		8.5
v 6.085 		28.853 		10.5
v 10.022 		27.517 		8.5
v 6.021 		29.174 		10.5
v 10.268 		27.732 		8.5
v 6.085 		30.147 		10.5
v 20.543 		15.19 		10.5
v 6.085 		30.147 		8.5
v 20.853 		15.085 		10.5
v 6.021 		29.174 		8.5
v 21.174 		15.021 		10.5
v 21.5 		15 		10.5
v 21.826 		15.021 		10.5
v 22.147 		15.085 		10.5
v 20.853 		15.085 		8.5
v 6.085 		28.853 		8.5
v 19.19 		16.543 		10.5
v 20.543 		19.81 		10.5
v 21.174 		15.021 		8.5
v 19.19 		16.543 		8.5
v 20.543 		19.81 		8.5
v 22.457 		15.19 		10.5
v 22.75 		15.335 		10.5
v 6 		29.5 		10.5
v 23.022 		15.517 		10.5
v 6 		29.5 		8.5
v 23.268 		15.732 		10.5
v 19.085 		16.853 		10.5
v 19.085 		16.853 		8.5
v 9.75 		27.335 		10.5
v 6.19 		30.457 		10.5
v 20.543 		15.19 		8.5
v 23.483 		15.978 		10.5
v 23.665 		16.25 		10.5
v 23.81 		16.543 		10.5
v 23.915 		16.853 		10.5
v 23.979 		17.174 		10.5
v 23.979 		17.174 		8.5
v 9.75 		27.335 		8.5
v 9.457 		27.19 		10.5
v 6.19 		30.457 		8.5
v 9.457 		27.19 		8.5
v 19.021 		17.174 		10.5
v 19.021 		17.174 		8.5
v 9.147 		27.085 		10.5
v 9.147 		27.085 		8.5
v 20.853 		19.915 		10.5
v 20.853 		19.915 		8.5
v 8.826 		27.021 		10.5
v 8.826 		27.021 		8.5
v 6.335 		30.75 		10.5
v 21.174 		19.979 		10.5
v 6.335 		30.75 		8.5
v 21.174 		19.979 		8.5
v 8.5 		32 		10.5
v 8.5 		32 		8.5
v 22.75 		19.665 		10.5
v 6.517 		31.022 		10.5
v 6.517 		31.022 		8.5
v 21.5 		20 		10.5
v 21.5 		20 		8.5
v 6.732 		31.268 		10.5
v 6.732 		31.268 		8.5
v 21.826 		19.979 		10.5
v 23.915 		16.853 		8.5
v 8.5 		27 		10.5
v 8.5 		27 		8.5
v 22.75 		19.665 		8.5
v 21.826 		19.979 		8.5
v 22.147 		19.915 		10.5
v 6.978 		31.483 		10.5
v 11 		29.5 		8.5
v 22.147 		19.915 		8.5
v 10.979 		29.174 		8.5
v 6.978 		31.483 		8.5
v 10.915 		28.853 		8.5
v 10.81 		28.543 		8.5
v 10.665 		28.25 		8.5
v 23.022 		19.483 		10.5
v 10.483 		27.978 		8.5
v 23.915 		18.147 		10.5
v 23.022 		19.483 		8.5
v 23.81 		18.457 		10.5
v 7.25 		31.665 		10.5
v 8.174 		27.021 		10.5
v 8.174 		27.021 		8.5
v 23.81 		16.543 		8.5
v 7.25 		31.665 		8.5
v 23.268 		19.268 		10.5
v 7.853 		27.085 		10.5
v 7.853 		27.085 		8.5
v 23.268 		19.268 		8.5
v 23.665 		18.75 		10.5
v 22.457 		19.81 		10.5
v 22.457 		19.81 		8.5
v 7.543 		31.81 		10.5
v 23.665 		16.25 		8.5
v 23.483 		19.022 		10.5
v 7.543 		31.81 		8.5
v 23.483 		19.022 		8.5
v 8.826 		31.979 		10.5
v 7.543 		27.19 		10.5
v 8.826 		31.979 		8.5
v 7.543 		27.19 		8.5
v 23.483 		15.978 		8.5
v 23.665 		18.75 		8.5
v 7.25 		27.335 		8.5
v 6.978 		27.517 		8.5
v 6.732 		27.732 		8.5
v 6.517 		27.978 		8.5
v 6.335 		28.25 		8.5
v 9.147 		31.915 		10.5
v 6.19 		28.543 		8.5
v 23.268 		15.732 		8.5
v 23.81 		18.457 		8.5
v 9.147 		31.915 		8.5
v 7.25 		27.335 		10.5
v 19 		17.5 		10.5
v 19 		17.5 		8.5
v 23.915 		18.147 		8.5
v 9.457 		31.81 		10.5
v 9.457 		31.81 		8.5
v 6.978 		27.517 		10.5
v 23.022 		15.517 		8.5
v 19.021 		17.826 		10.5
v 19.021 		17.826 		8.5
v 9.75 		31.665 		10.5
v 9.75 		31.665 		8.5
v 6.732 		27.732 		10.5
v 19.085 		18.147 		10.5
v 10.022 		31.483 		10.5
v 19.085 		18.147 		8.5
v 10.022 		31.483 		8.5
v 6.517 		27.978 		10.5
v 10.979 		29.826 		8.5
v 22.75 		15.335 		8.5
v 10.268 		31.268 		10.5
v 7.853 		31.915 		10.5
v 10.268 		31.268 		8.5
v 7.853 		31.915 		8.5
v 19.19 		18.457 		10.5
v 19.19 		18.457 		8.5
v 19.335 		18.75 		10.5
v 6.335 		28.25 		10.5
v 8.174 		31.979 		10.5
v 10.483 		31.022 		10.5
v 22.457 		15.19 		8.5
v 8.174 		31.979 		8.5
v 10.483 		31.022 		8.5
v 19.335 		18.75 		8.5
v 10.665 		30.75 		8.5
v 6.19 		28.543 		10.5
v 10.81 		30.457 		8.5
v 10.915 		30.147 		8.5
v 10.665 		30.75 		10.5
v 22.147 		15.085 		8.5
v 10.81 		30.457 		10.5
v 21.826 		15.021 		8.5
v 10.483 		27.978 		10.5
v 10.665 		28.25 		10.5
v 10.81 		28.543 		10.5
v 10.915 		28.853 		10.5
v 10.979 		29.174 		10.5
v 10.915 		30.147 		10.5
v 11 		29.5 		10.5
v 21.5 		15 		8.5
v 10.979 		29.826 		10.5
# 192 vertices

g group_5_16777215

usemtl color_16777215
s 0

f 781 	782 	783
f 781 	783 	784
f 782 	785 	786
f 782 	786 	783
f 785 	790 	791
f 785 	791 	786
f 792 	794 	795
f 792 	795 	796
f 787 	788 	789
f 787 	789 	793
f 797 	798 	795
f 797 	795 	794
f 790 	801 	802
f 790 	802 	791
f 803 	804 	808
f 803 	808 	810
f 805 	806 	798
f 805 	798 	797
f 799 	811 	813
f 799 	813 	800
f 807 	809 	815
f 807 	815 	821
f 816 	814 	820
f 816 	820 	824
f 801 	822 	825
f 801 	825 	802
f 809 	829 	831
f 809 	831 	815
f 814 	812 	837
f 814 	837 	820
f 816 	923 	814
f 818 	819 	817
f 819 	827 	817
f 827 	828 	817
f 828 	830 	817
f 816 	817 	830
f 816 	830 	832
f 816 	832 	838
f 816 	838 	839
f 816 	839 	840
f 816 	840 	841
f 816 	841 	842
f 816 	842 	788
f 804 	835 	844
f 804 	844 	808
f 822 	833 	834
f 822 	834 	825
f 835 	845 	847
f 835 	847 	844
f 806 	805 	826
f 823 	826 	805
f 833 	848 	849
f 833 	849 	834
f 811 	836 	846
f 811 	846 	813
f 845 	850 	851
f 845 	851 	847
f 788 	842 	843
f 788 	843 	789
f 852 	853 	826
f 852 	826 	823
f 799 	800 	829
f 831 	829 	800
f 850 	854 	855
f 850 	855 	851
f 836 	856 	858
f 836 	858 	846
f 857 	859 	853
f 857 	853 	852
f 856 	863 	864
f 856 	864 	858
f 865 	866 	859
f 865 	859 	857
f 822 	801 	833
f 801 	790 	833
f 848 	833 	790
f 848 	790 	785
f 848 	785 	782
f 812 	923 	781
f 814 	923 	812
f 781 	923 	782
f 863 	867 	868
f 863 	868 	864
f 869 	874 	866
f 869 	866 	865
f 899 	862 	873
f 854 	871 	872
f 854 	872 	855
f 875 	878 	874
f 875 	874 	869
f 842 	841 	870
f 842 	870 	843
f 876 	880 	868
f 876 	868 	867
f 862 	884 	887
f 862 	887 	873
f 841 	840 	892
f 841 	892 	870
f 891 	915 	872
f 877 	879 	855
f 879 	881 	855
f 855 	881 	882
f 855 	882 	883
f 855 	883 	885
f 855 	885 	810
f 855 	810 	808
f 844 	851 	808
f 847 	851 	844
f 855 	808 	851
f 889 	893 	880
f 889 	880 	876
f 884 	894 	897
f 884 	897 	887
f 899 	900 	878
f 899 	878 	875
f 840 	839 	902
f 840 	902 	892
f 890 	895 	896
f 890 	896 	891
f 886 	816 	787
f 888 	816 	886
f 898 	816 	888
f 903 	816 	898
f 894 	816 	903
f 884 	816 	894
f 862 	816 	884
f 899 	816 	862
f 894 	903 	905
f 894 	905 	897
f 861 	860 	906
f 861 	906 	908
f 895 	907 	909
f 895 	909 	896
f 839 	838 	910
f 839 	910 	902
f 873 	900 	899
f 903 	898 	911
f 903 	911 	905
f 898 	888 	920
f 898 	920 	911
f 906 	917 	921
f 906 	921 	908
f 909 	912 	896
f 912 	913 	896
f 891 	896 	913
f 891 	913 	914
f 891 	914 	915
f 916 	872 	915
f 918 	872 	916
f 821 	872 	918
f 815 	831 	872
f 855 	872 	831
f 800 	855 	831
f 821 	815 	872
f 838 	832 	919
f 838 	919 	910
f 907 	922 	912
f 907 	912 	909
f 924 	849 	923
f 848 	923 	849
f 888 	886 	925
f 888 	925 	920
f 865 	816 	869
f 875 	869 	816
f 857 	816 	865
f 852 	816 	857
f 823 	816 	852
f 805 	816 	823
f 899 	875 	816
f 788 	787 	816
f 917 	926 	927
f 917 	927 	921
f 922 	928 	913
f 922 	913 	912
f 832 	830 	929
f 832 	929 	919
f 924 	923 	930
f 924 	930 	931
f 886 	787 	793
f 886 	793 	925
f 926 	932 	933
f 926 	933 	927
f 928 	934 	914
f 928 	914 	913
f 932 	936 	938
f 932 	938 	933
f 901 	904 	893
f 901 	893 	889
f 934 	939 	915
f 934 	915 	914
f 930 	935 	937
f 930 	937 	931
f 830 	828 	941
f 830 	941 	929
f 943 	945 	904
f 943 	904 	901
f 936 	942 	944
f 936 	944 	938
f 935 	946 	947
f 935 	947 	937
f 939 	949 	916
f 939 	916 	915
f 828 	827 	952
f 828 	952 	941
f 946 	948 	955
f 946 	955 	947
f 792 	816 	794
f 797 	794 	816
f 948 	816 	792
f 946 	816 	948
f 935 	816 	946
f 930 	816 	935
f 923 	816 	930
f 848 	782 	923
f 805 	797 	816
f 949 	957 	918
f 949 	918 	916
f 942 	951 	954
f 942 	954 	944
f 950 	953 	945
f 950 	945 	943
f 940 	877 	855
f 861 	908 	855
f 908 	921 	855
f 921 	927 	855
f 927 	933 	855
f 933 	938 	855
f 938 	944 	855
f 944 	954 	855
f 954 	956 	855
f 956 	958 	855
f 959 	855 	958
f 940 	855 	959
f 861 	855 	953
f 945 	953 	855
f 800 	813 	855
f 813 	846 	855
f 846 	858 	855
f 858 	864 	855
f 864 	868 	855
f 868 	880 	855
f 880 	893 	855
f 893 	904 	855
f 945 	855 	904
f 948 	792 	796
f 948 	796 	955
f 951 	960 	956
f 951 	956 	954
f 827 	819 	961
f 827 	961 	952
f 957 	807 	821
f 957 	821 	918
f 872 	871 	890
f 872 	890 	891
f 960 	962 	958
f 960 	958 	956
f 819 	818 	963
f 819 	963 	961
f 950 	860 	953
f 861 	953 	860
f 962 	969 	959
f 962 	959 	958
f 854 	850 	871
f 850 	845 	871
f 845 	835 	871
f 835 	804 	871
f 890 	871 	804
f 890 	804 	803
f 890 	803 	964
f 890 	964 	965
f 890 	965 	966
f 890 	966 	967
f 890 	967 	968
f 890 	968 	970
f 890 	970 	972
f 969 	972 	940
f 969 	940 	959
f 877 	940 	972
f 972 	970 	877
f 970 	968 	879
f 970 	879 	877
f 968 	967 	881
f 968 	881 	879
f 967 	966 	882
f 967 	882 	881
f 966 	965 	883
f 966 	883 	882
f 809 	807 	829
f 807 	957 	829
f 957 	949 	829
f 949 	939 	829
f 799 	829 	939
f 799 	939 	934
f 799 	934 	928
f 799 	928 	922
f 895 	799 	907
f 890 	811 	895
f 922 	907 	799
f 965 	964 	885
f 965 	885 	883
f 964 	803 	810
f 964 	810 	885
f 960 	890 	962
f 951 	890 	960
f 969 	962 	890
f 942 	890 	951
f 936 	890 	942
f 932 	890 	936
f 926 	890 	932
f 917 	890 	926
f 906 	890 	917
f 860 	890 	906
f 972 	969 	890
f 943 	890 	950
f 901 	890 	943
f 889 	890 	901
f 876 	890 	889
f 867 	890 	876
f 863 	890 	867
f 856 	890 	863
f 836 	890 	856
f 811 	890 	836
f 799 	895 	811
f 860 	950 	890
f 818 	817 	971
f 818 	971 	963
f 784 	837 	781
f 812 	781 	837
f 820 	796 	824
f 837 	955 	820
f 902 	910 	796
f 892 	902 	798
f 795 	798 	902
f 824 	796 	971
f 910 	919 	796
f 971 	796 	963
f 919 	929 	796
f 929 	941 	796
f 941 	952 	796
f 961 	796 	952
f 963 	796 	961
f 837 	784 	783
f 837 	783 	786
f 837 	786 	791
f 837 	791 	802
f 825 	837 	802
f 834 	837 	825
f 849 	837 	834
f 887 	789 	873
f 897 	789 	887
f 843 	873 	789
f 789 	897 	905
f 789 	905 	911
f 789 	911 	920
f 789 	920 	925
f 789 	925 	793
f 878 	843 	874
f 900 	843 	878
f 873 	843 	900
f 866 	874 	843
f 843 	870 	806
f 806 	826 	843
f 826 	853 	843
f 853 	859 	843
f 866 	843 	859
f 798 	806 	870
f 870 	892 	798
f 849 	924 	837
f 924 	931 	837
f 931 	937 	837
f 937 	947 	837
f 955 	837 	947
f 796 	820 	955
f 795 	902 	796
f 971 	817 	816
f 971 	816 	824
# 376 faces

 #end of obj_5

